<?xml version="1.0" encoding="UTF-8" standalone="no"?>
<!-- Uploaded to: SVG Repo, www.svgrepo.com, Generator: SVG Repo Mixer Tools -->

<svg
   xmlns:dc="http://purl.org/dc/elements/1.1/"
   xmlns:cc="http://creativecommons.org/ns#"
   xmlns:rdf="http://www.w3.org/1999/02/22-rdf-syntax-ns#"
   xmlns:svg="http://www.w3.org/2000/svg"
   xmlns="http://www.w3.org/2000/svg"
   xmlns:sodipodi="http://sodipodi.sourceforge.net/DTD/sodipodi-0.dtd"
   xmlns:inkscape="http://www.inkscape.org/namespaces/inkscape"
   fill="#000000"
   height="800px"
   width="800px"
   version="1.1"
   id="Capa_1"
   viewBox="0 0 60 60"
   xml:space="preserve"
   inkscape:version="0.91 r13725"
   sodipodi:docname="repeat-all-svgrepo-com.svg"
   inkscape:export-filename="/home/sure/Desktop/repeat-all-svgrepo-com.svg"
   inkscape:export-xdpi="90"
   inkscape:export-ydpi="90"><metadata
     id="metadata13"><rdf:RDF><cc:Work
         rdf:about=""><dc:format>image/svg+xml</dc:format><dc:type
           rdf:resource="http://purl.org/dc/dcmitype/StillImage" /><dc:title></dc:title></cc:Work></rdf:RDF></metadata><defs
     id="defs11" /><sodipodi:namedview
     pagecolor="#ffffff"
     bordercolor="#666666"
     borderopacity="1"
     objecttolerance="10"
     gridtolerance="10"
     guidetolerance="10"
     inkscape:pageopacity="0"
     inkscape:pageshadow="2"
     inkscape:window-width="2005"
     inkscape:window-height="1128"
     id="namedview9"
     showgrid="false"
     inkscape:zoom="0.417193"
     inkscape:cx="446.14629"
     inkscape:cy="233.60966"
     inkscape:window-x="43"
     inkscape:window-y="24"
     inkscape:window-maximized="1"
     inkscape:current-layer="Capa_1" /><g
     id="g3"><path
       d="M42,12H20.414l7.293-7.293c0.391-0.391,0.391-1.023,0-1.414s-1.023-0.391-1.414,0l-8.999,8.999   c-0.093,0.092-0.166,0.203-0.217,0.326c-0.101,0.244-0.101,0.52,0,0.764c0.051,0.123,0.124,0.234,0.217,0.326l8.999,8.999   C26.488,22.902,26.744,23,27,23s0.512-0.098,0.707-0.293c0.391-0.391,0.391-1.023,0-1.414L20.414,14H42c8.822,0,16,7.178,16,16   c0,4.252-1.668,8.264-4.696,11.295c-0.391,0.391-0.391,1.024,0,1.414c0.195,0.195,0.451,0.293,0.707,0.293s0.512-0.098,0.707-0.293   C58.124,39.3,60,34.786,60,30C60,20.075,51.925,12,42,12z"
       id="path5" /><path
       d="M35.707,37.293c-0.391-0.391-1.023-0.391-1.414,0s-0.391,1.023,0,1.414L41.586,46H18C9.178,46,2,38.822,2,30   c0-3.783,1.359-7.46,3.828-10.354c0.358-0.421,0.309-1.052-0.111-1.41c-0.419-0.359-1.052-0.31-1.41,0.111   C1.529,21.604,0,25.741,0,30c0,9.925,8.075,18,18,18h23.586l-7.293,7.293c-0.391,0.391-0.391,1.023,0,1.414   C34.488,56.902,34.744,57,35,57s0.512-0.098,0.707-0.293l9-9c0.391-0.391,0.391-1.023,0-1.414L35.707,37.293z"
       id="path7" /></g><ellipse
     style="fill:#1a1a1a;fill-rule:evenodd;stroke:#000000;stroke-width:0.04668368px;stroke-linecap:butt;stroke-linejoin:miter;stroke-opacity:1"
     id="path3343"
     cx="30.928556"
     cy="29.955513"
     rx="7.2130122"
     ry="7.1862183" /></svg>